<?xml version="1.0" standalone="no"?>
<!DOCTYPE svg PUBLIC "-//W3C//DTD SVG 20010904//EN"
 "http://www.w3.org/TR/2001/REC-SVG-20010904/DTD/svg10.dtd">
<svg version="1.0" xmlns="http://www.w3.org/2000/svg"
 width="700.000000pt" height="700.000000pt" viewBox="0 0 700.000000 700.000000"
 preserveAspectRatio="xMidYMid meet">
<metadata>
Created by potrace 1.14, written by Peter Selinger 2001-2017
</metadata>
<g transform="translate(0.000000,700.000000) scale(0.100000,-0.100000)"
fill="#000000" stroke="none">
<path d="M2065 5894 c-296 -38 -563 -163 -777 -364 -225 -210 -376 -506 -404
-792 -35 -345 51 -835 207 -1185 10 -24 19 -46 19 -49 0 -15 156 -314 211
-406 84 -139 296 -441 329 -468 3 -3 16 -18 28 -34 105 -137 386 -431 577
-603 297 -268 717 -583 1040 -780 91 -55 197 -113 208 -113 17 0 255 143 412
248 121 81 421 298 450 325 7 7 25 21 41 32 15 11 35 27 44 35 8 8 36 31 60
50 25 19 52 41 60 50 8 9 28 26 45 39 137 105 520 488 661 661 16 19 31 37 34
40 3 3 30 37 61 75 381 480 631 1006 718 1510 30 176 44 423 29 544 -15 130
-18 148 -44 236 -59 206 -172 395 -333 556 -271 270 -629 413 -1016 404 -126
-3 -177 -10 -316 -43 -359 -86 -704 -351 -866 -668 -21 -41 -41 -74 -44 -74
-3 0 -15 19 -25 42 -26 58 -107 181 -162 248 -223 267 -538 439 -892 485 -90
12 -259 12 -355 -1z"/>
</g>
</svg>
